<svg width="58" height="24" viewBox="0 0 58 24" fill="none" xmlns="http://www.w3.org/2000/svg">
<path d="M22.44 20.8L23.88 20.4C24.68 20.4 25.08 20.8 25.08 21.6C25.08 22.1867 24.72 22.6 24 22.84C23.28 23.08 22.76 23.2 22.44 23.2C21.16 23.2 20.1867 22.4 19.52 20.8C19.1467 19.92 18.8267 18.0667 18.56 15.24C18.32 12.4133 18.08 9.86667 17.84 7.6C17.6267 5.30667 17.3467 4.16 17 4.16C16.68 4.16 16.28 6.01333 15.8 9.72C15.6933 10.6 15.6 11.36 15.52 12C15.4667 12.6133 15.3733 13.4 15.24 14.36C15.1333 15.2933 15.0533 15.9733 15 16.4C14.7867 18.1867 14.4533 19.5067 14 20.36C13.5467 21.1867 12.8133 21.6 11.8 21.6C10.52 21.6 9.54667 20.8 8.88 19.2C8.48 18.32 7.93333 16.5067 7.24 13.76C6.57333 10.9867 5.94667 8.49333 5.36 6.28C4.8 4.06667 4.41333 2.96 4.2 2.96C3.85333 2.96 3.56 5.57333 3.32 10.8C3.10667 16 3 20.0133 3 22.84C3 23.6133 2.6 24 1.8 24C1.37333 24 1.06667 23.88 0.88 23.64C0.693333 23.3733 0.6 23.1067 0.6 22.84C0.6 20.28 0.693333 16.6133 0.88 11.84C1.09333 7.04 1.34667 4.08 1.64 2.96C2.06667 1.36 2.90667 0.559999 4.16 0.559999C5.41333 0.559999 6.33333 1.36 6.92 2.96C7.24 3.81333 7.73333 5.66667 8.4 8.52C9.09333 11.3467 9.74667 13.84 10.36 16C10.9733 18.1333 11.44 19.2 11.76 19.2C12.1067 19.2 12.3867 18.1867 12.6 16.16C13.5067 8.90667 14.0933 4.90667 14.36 4.16C14.6 3.41333 14.9067 2.82667 15.28 2.4C15.68 1.97333 16.2533 1.76 17 1.76C18.28 1.76 19.2 2.56 19.76 4.16C19.9733 4.69333 20.1867 6.38667 20.4 9.24C20.6133 12.0933 20.88 14.7333 21.2 17.16C21.52 19.5867 21.9333 20.8 22.44 20.8ZM33.0447 4.16C33.4714 4.16 33.9114 4.36 34.3647 4.76C34.818 5.13333 35.0447 5.53333 35.0447 5.96C35.0447 6.36 34.858 6.66667 34.4847 6.88C34.138 7.09333 33.7514 7.2 33.3247 7.2C32.898 7.2 32.538 7.01333 32.2447 6.64C31.978 6.24 31.8447 5.81333 31.8447 5.36C31.8447 4.56 32.2447 4.16 33.0447 4.16ZM29.4447 19.04C27.9514 20.64 26.4314 21.7867 24.8847 22.48C24.4047 22.6933 24.018 22.8 23.7247 22.8C22.9247 22.8 22.5247 22.4 22.5247 21.6C22.5247 21.0933 22.9247 20.68 23.7247 20.36C24.1514 20.2 24.7114 19.88 25.4047 19.4C26.1247 18.92 26.6047 18.56 26.8447 18.32C27.0847 18.08 27.498 17.64 28.0847 17C28.698 16.36 29.178 15.88 29.5247 15.56C29.8714 15.2133 30.338 14.8667 30.9247 14.52C31.538 14.1733 32.098 14 32.6047 14C33.6447 14 34.4447 14.3733 35.0047 15.12C35.5647 15.8667 35.898 16.6933 36.0047 17.6C36.298 20 36.7647 21.2 37.4047 21.2C37.9114 21.2 38.5647 21.0667 39.3647 20.8C40.1647 20.5333 40.6047 20.4 40.6847 20.4C41.4847 20.4 41.8847 20.8 41.8847 21.6C41.8847 22.1867 41.4847 22.6133 40.6847 22.88C39.2447 23.36 38.0714 23.6 37.1647 23.6C36.2847 23.6 35.5647 23.2267 35.0047 22.48C34.4447 21.7333 34.1114 20.9067 34.0047 20C33.7114 17.6 33.2447 16.4 32.6047 16.4C32.258 16.4 31.858 16.6267 31.4047 17.08C30.978 17.5067 30.6314 17.8533 30.3647 18.12C30.098 18.36 29.7914 18.6667 29.4447 19.04ZM43.2416 21.68C43.2149 21.68 43.0149 21.7867 42.6416 22C41.6816 22.5333 40.9749 22.8 40.5216 22.8C39.7216 22.8 39.3216 22.4 39.3216 21.6C39.3216 21.0933 39.7216 20.68 40.5216 20.36C40.6549 20.3067 40.9749 20.1467 41.4816 19.88C41.9882 19.6133 42.2816 19.4533 42.3616 19.4C42.2549 19.16 42.2016 18.8 42.2016 18.32C42.2016 15.92 43.0416 13.8667 44.7216 12.16C46.4016 10.4533 47.9349 9.6 49.3216 9.6C50.7082 9.6 51.8016 9.93333 52.6016 10.6C53.4016 11.24 53.8016 12.0267 53.8016 12.96C53.8016 13.8667 53.5882 14.6533 53.1616 15.32C52.7349 15.9867 52.0682 16.64 51.1616 17.28C49.9082 18.1867 48.0816 19.24 45.6816 20.44C46.7482 21.2133 48.2282 21.6 50.1216 21.6C52.0149 21.6 53.8816 21.2933 55.7216 20.68C56.2816 20.4933 56.6016 20.4 56.6816 20.4C57.4816 20.4 57.8816 20.8 57.8816 21.6C57.8816 22.1867 57.4816 22.6133 56.6816 22.88C54.4416 23.6267 52.2816 24 50.2016 24C47.2416 24 44.9216 23.2267 43.2416 21.68ZM44.6016 18.32C49.1349 16.0533 51.4016 14.3467 51.4016 13.2C51.4016 12.4 50.7349 12 49.4016 12C48.6016 12 47.6016 12.64 46.4016 13.92C45.2016 15.1733 44.6016 16.64 44.6016 18.32Z" fill="#1C272D"/>
</svg>
