<svg width="35" height="31" viewBox="0 0 35 31" fill="none" xmlns="http://www.w3.org/2000/svg">
<path d="M0 4.42857C0 1.98594 1.96191 0 4.375 0H30.625C33.0381 0 35 1.98594 35 4.42857V26.5714C35 29.0141 33.0381 31 30.625 31H4.375C1.96191 31 0 29.0141 0 26.5714V4.42857ZM22.1348 11.798C21.8271 11.3413 21.3213 11.0714 20.7812 11.0714C20.2412 11.0714 19.7285 11.3413 19.4277 11.798L13.4805 20.6275L11.6689 18.3371C11.3545 17.9426 10.8828 17.7143 10.3906 17.7143C9.89844 17.7143 9.41992 17.9426 9.1123 18.3371L4.7373 23.8728C4.34082 24.371 4.26563 25.056 4.53906 25.6304C4.8125 26.2047 5.38672 26.5714 6.01562 26.5714H12.5781H14.7656H28.9844C29.5928 26.5714 30.1533 26.2324 30.4336 25.6857C30.7139 25.1391 30.6797 24.4817 30.3379 23.9766L22.1348 11.798ZM7.65625 11.0714C8.52649 11.0714 9.36109 10.7215 9.97644 10.0986C10.5918 9.47572 10.9375 8.6309 10.9375 7.75C10.9375 6.8691 10.5918 6.02428 9.97644 5.4014C9.36109 4.77851 8.52649 4.42857 7.65625 4.42857C6.78601 4.42857 5.95141 4.77851 5.33606 5.4014C4.7207 6.02428 4.375 6.8691 4.375 7.75C4.375 8.6309 4.7207 9.47572 5.33606 10.0986C5.95141 10.7215 6.78601 11.0714 7.65625 11.0714Z" fill="#9CA3B6"/>
</svg>
